<?xml version="1.0" standalone="no"?>
<!DOCTYPE svg PUBLIC "-//W3C//DTD SVG 20010904//EN"
 "http://www.w3.org/TR/2001/REC-SVG-20010904/DTD/svg10.dtd">
<svg version="1.0" xmlns="http://www.w3.org/2000/svg"
 width="1195.000000pt" height="1195.000000pt" viewBox="0 0 1195.000000 1195.000000"
 preserveAspectRatio="xMidYMid meet">
<metadata>
Created by potrace 1.12, written by Peter Selinger 2001-2015
</metadata>
<g transform="translate(0.000000,1195.000000) scale(0.100000,-0.100000)"
fill="#000000" stroke="none">
<path d="M0 5975 l0 -5975 5973 0 5972 0 0 5975 0 5975 -5972 0 -5973 0 0
-5975z m11900 0 l0 -5945 -5945 0 -5945 0 0 5945 0 5945 5945 0 5945 0 0
-5945z"/>
<path d="M4518 10913 c-14 -16 -84 -119 -102 -150 -5 -10 8 -13 53 -13 l61 0
88 81 c48 45 89 85 90 90 2 5 -37 9 -86 9 -72 0 -92 -3 -104 -17z"/>
<path d="M1004 10906 c-3 -8 -4 -153 -2 -323 5 -354 8 -373 87 -453 57 -58
135 -90 243 -97 184 -13 320 52 380 182 22 48 23 60 26 378 l3 327 -95 0 -95
0 -3 -312 c-3 -348 -6 -360 -71 -395 -45 -23 -161 -24 -204 0 -67 36 -67 37
-73 387 l-5 315 -93 3 c-74 2 -93 0 -98 -12z"/>
<path d="M5820 10845 l0 -76 88 3 87 3 0 70 0 70 -87 3 -88 3 0 -76z"/>
<path d="M2201 10688 c-47 -8 -80 -26 -123 -66 l-28 -26 0 42 0 42 -80 0 -80
0 0 -315 0 -315 84 0 84 0 4 208 c3 217 7 238 52 274 23 19 96 24 126 8 33
-18 40 -66 40 -281 l0 -209 90 0 90 0 0 210 c0 265 9 290 110 290 93 0 100
-21 100 -291 l0 -209 91 0 91 0 -4 243 c-4 254 -10 288 -56 341 -30 33 -97 57
-164 57 -78 1 -113 -12 -160 -58 l-37 -36 -27 32 c-41 50 -123 73 -203 59z"/>
<path d="M3631 10688 c-47 -8 -80 -26 -123 -66 l-28 -26 0 42 0 42 -80 0 -80
0 0 -315 0 -315 84 0 84 0 4 208 c4 217 8 239 52 274 23 19 96 24 126 8 33
-18 40 -66 40 -281 l0 -209 90 0 90 0 0 210 c0 264 10 290 109 290 96 0 101
-15 101 -285 l0 -215 90 0 90 0 0 215 c0 117 -5 237 -11 264 -23 107 -93 161
-210 162 -78 1 -106 -9 -158 -57 l-41 -36 -26 32 c-41 49 -123 72 -203 58z"/>
<path d="M5411 10688 c-45 -8 -114 -49 -131 -77 -8 -14 -13 -11 -35 15 -32 41
-91 64 -166 64 -67 0 -107 -16 -156 -63 l-33 -31 0 42 0 43 -82 -3 -83 -3 -3
-312 -2 -313 90 0 90 0 0 200 c0 216 7 253 51 284 14 9 43 16 69 16 37 0 52
-5 71 -26 24 -25 24 -29 28 -250 l3 -224 84 0 84 0 0 188 c1 205 7 252 41 288
18 19 33 24 74 24 42 0 56 -5 76 -26 24 -25 24 -28 27 -250 l4 -224 84 0 85 0
-3 258 -3 259 -28 41 c-45 64 -141 97 -236 80z"/>
<path d="M6374 10689 c-104 -13 -192 -80 -237 -177 -17 -38 -21 -67 -21 -152
-1 -92 2 -111 23 -153 29 -56 82 -112 132 -137 92 -48 226 -45 320 7 71 38
107 89 129 181 l8 33 -86 -3 -86 -3 -8 -32 c-13 -49 -60 -83 -116 -83 -63 0
-92 17 -121 68 -18 34 -23 59 -24 115 -1 134 41 197 135 205 62 5 99 -18 123
-74 l14 -34 80 0 c80 0 81 0 81 25 0 64 -63 150 -133 184 -53 26 -146 39 -213
30z"/>
<path d="M7072 10689 c-67 -9 -153 -51 -188 -92 -67 -80 -97 -202 -74 -312 32
-160 148 -249 320 -248 188 2 307 115 318 303 13 230 -146 378 -376 349z m129
-152 c51 -34 69 -78 69 -171 0 -135 -46 -196 -148 -196 -59 0 -105 32 -128 87
-21 49 -18 169 6 220 35 79 130 108 201 60z"/>
<path d="M4417 10673 c-4 -3 -7 -145 -7 -315 l0 -308 90 0 90 0 0 315 0 315
-83 0 c-46 0 -87 -3 -90 -7z"/>
<path d="M5820 10365 l0 -315 90 0 90 0 -2 313 -3 312 -87 3 -88 3 0 -316z"/>
<path d="M8623 9475 c-202 -44 -323 -211 -323 -446 0 -221 114 -384 305 -433
177 -47 352 15 440 154 26 40 55 130 55 167 0 23 -1 24 -92 21 l-92 -3 -8 -39
c-18 -85 -74 -138 -159 -151 -97 -14 -186 39 -230 138 -20 43 -24 69 -24 152
0 91 3 106 30 160 41 82 93 118 179 123 46 3 72 0 97 -13 49 -25 87 -63 100
-102 l11 -33 88 0 c49 0 91 3 93 8 3 4 -4 35 -14 69 -37 120 -149 210 -290
232 -78 13 -88 13 -166 -4z"/>
<path d="M3260 9314 l0 -158 -27 27 c-60 57 -178 76 -260 42 -53 -22 -117 -88
-145 -149 -20 -43 -23 -68 -23 -161 0 -98 3 -116 26 -165 30 -63 72 -111 116
-134 94 -48 217 -39 285 22 l38 34 0 -36 0 -36 85 0 85 0 -2 433 -3 432 -87 3
-88 3 0 -157z m-69 -221 c46 -27 72 -93 72 -178 -1 -132 -48 -195 -147 -195
-36 0 -52 6 -80 30 -44 39 -60 86 -60 175 0 117 53 184 147 185 22 0 52 -8 68
-17z"/>
<path d="M7029 9443 c-28 -71 -264 -697 -290 -765 l-28 -78 99 0 c56 0 100 4
100 9 0 6 14 49 31 96 l31 85 160 -2 160 -3 33 -90 32 -90 100 -3 101 -3 -162
433 -161 433 -98 3 -97 3 -11 -28z m155 -339 c24 -71 47 -137 51 -146 7 -17
-2 -18 -99 -18 -58 0 -106 4 -106 9 0 7 39 122 96 280 7 22 12 12 58 -125z"/>
<path d="M7488 9464 c-3 -3 14 -65 37 -137 24 -73 87 -266 140 -429 l96 -298
109 0 109 0 140 429 c78 236 141 432 141 435 0 4 -44 5 -97 4 l-98 -3 -95
-297 c-52 -163 -98 -294 -101 -290 -5 5 -146 444 -184 570 -6 21 -12 22 -99
22 -51 0 -95 -3 -98 -6z"/>
<path d="M1037 9414 c-4 -4 -7 -47 -7 -96 l0 -88 -50 0 -50 0 0 -60 0 -60 49
0 50 0 3 -207 c3 -232 10 -258 70 -286 43 -20 136 -30 193 -21 l46 6 -3 66 -3
66 -46 -2 c-77 -5 -79 1 -79 204 l0 174 65 0 66 0 -3 58 -3 57 -62 3 -62 3 -3
92 -3 92 -80 3 c-45 1 -84 0 -88 -4z"/>
<path d="M1653 9239 c-177 -23 -296 -198 -263 -386 26 -152 112 -240 257 -263
140 -23 271 36 327 147 29 57 24 63 -50 63 -64 0 -69 -2 -110 -40 -40 -37 -48
-40 -101 -40 -90 0 -137 36 -150 113 l-6 37 228 0 228 0 -6 63 c-20 212 -158
331 -354 306z m122 -151 c25 -20 55 -73 55 -98 0 -6 -49 -10 -135 -10 -149 0
-151 1 -120 61 35 67 143 92 200 47z"/>
<path d="M3814 9239 c-68 -9 -133 -39 -177 -83 -149 -149 -115 -441 62 -531
134 -67 301 -48 398 47 67 65 88 124 88 243 0 113 -16 161 -75 229 -63 72
-181 110 -296 95z m146 -164 c39 -37 53 -84 52 -171 -1 -126 -49 -184 -150
-184 -91 0 -142 69 -142 195 0 132 56 200 158 192 41 -3 59 -10 82 -32z"/>
<path d="M6041 9238 c-48 -8 -72 -22 -113 -63 l-28 -28 -22 28 c-31 40 -93 65
-161 65 -68 0 -110 -16 -160 -60 l-37 -32 0 41 0 41 -80 0 -80 0 0 -315 0
-315 85 0 85 0 0 183 c0 218 5 249 40 287 23 25 36 30 75 30 97 0 105 -21 105
-297 l0 -203 85 0 85 0 0 168 c0 282 18 332 119 332 38 0 52 -5 72 -26 24 -25
24 -28 27 -250 l3 -224 91 0 90 0 -4 243 c-3 221 -5 246 -25 289 -38 82 -140
126 -252 106z"/>
<path d="M2370 9224 c-19 -8 -50 -29 -67 -46 l-33 -32 0 42 0 42 -80 0 -80 0
0 -315 0 -315 84 0 84 0 4 208 c3 169 6 213 20 237 23 42 55 57 117 53 46 -3
57 -7 75 -31 20 -27 21 -43 24 -248 l3 -219 91 0 90 0 -5 238 c-2 136 -9 252
-16 273 -27 88 -93 129 -206 128 -40 0 -85 -6 -105 -15z"/>
<path d="M4633 9214 c-3 -8 -3 -115 0 -237 6 -279 19 -322 107 -367 89 -45
215 -28 283 38 l37 36 0 -42 0 -42 85 0 85 0 -2 313 -3 312 -87 3 -86 3 -4
-214 c-3 -235 -7 -250 -70 -283 -38 -19 -101 -14 -129 12 -32 29 -39 81 -39
287 l0 197 -85 0 c-69 0 -87 -3 -92 -16z"/>
<path d="M9220 8695 l0 -95 95 0 95 0 0 95 0 95 -95 0 -95 0 0 -95z"/>
<path d="M1650 2077 l-135 -42 154 -3 c85 -1 156 0 159 3 9 9 -18 85 -31 84
-7 0 -73 -19 -147 -42z"/>
<path d="M1222 1946 c-95 -30 -175 -56 -177 -58 -3 -3 223 -757 229 -765 1 -1
34 8 74 20 l72 21 0 418 c0 328 -3 418 -12 417 -7 0 -91 -24 -186 -53z"/>
<path d="M1450 1605 l0 -396 76 3 77 3 113 370 c62 204 116 380 119 393 l5 22
-195 0 -195 0 0 -395z"/>
<path d="M2115 1959 c66 -21 123 -39 128 -39 4 0 7 18 7 40 l0 40 -127 -1
-128 -1 120 -39z"/>
<path d="M2925 1573 c-36 -10 -64 -35 -85 -77 -26 -54 -26 -108 1 -162 50
-104 206 -110 253 -9 23 47 20 55 -16 55 -26 0 -37 -6 -50 -30 -21 -37 -60
-48 -94 -26 -73 49 -44 196 40 196 23 0 66 -33 66 -50 0 -12 57 -13 64 -2 3 5
-3 24 -12 43 -27 54 -96 80 -167 62z"/>
<path d="M3720 1520 c0 -47 -1 -50 -19 -40 -11 5 -35 10 -53 10 -97 0 -131
-168 -45 -220 38 -24 53 -25 90 -6 15 8 27 11 27 5 0 -5 14 -9 30 -9 l30 0 0
155 0 155 -30 0 c-29 0 -30 -1 -30 -50z m-10 -99 c16 -31 12 -79 -10 -101 -24
-24 -29 -24 -58 -4 -16 11 -22 25 -22 50 0 51 15 74 50 74 19 0 33 -7 40 -19z"/>
<path d="M4234 1498 c-15 -40 -40 -106 -55 -146 -16 -40 -29 -77 -29 -82 0 -6
15 -10 33 -10 29 0 35 5 46 35 l13 36 56 -3 c54 -3 57 -4 66 -35 8 -30 12 -33
48 -33 22 0 38 4 36 9 -1 4 -28 74 -58 155 l-54 146 -37 0 c-37 0 -37 -1 -65
-72z m76 -43 c5 -14 13 -37 16 -50 6 -23 3 -25 -30 -25 -20 0 -36 1 -36 3 0
10 33 97 36 97 3 0 9 -11 14 -25z"/>
<path d="M4960 1545 c0 -22 4 -25 35 -25 31 0 35 3 35 25 0 22 -4 25 -35 25
-31 0 -35 -3 -35 -25z"/>
<path d="M5830 1415 l0 -155 35 0 35 0 0 65 0 65 60 0 60 0 0 -65 0 -65 35 0
35 0 0 155 0 155 -35 0 -35 0 0 -60 0 -60 -60 0 -60 0 0 60 0 60 -35 0 -35 0
0 -155z"/>
<path d="M7250 1545 c0 -22 4 -25 35 -25 31 0 35 3 35 25 0 22 -4 25 -35 25
-31 0 -35 -3 -35 -25z"/>
<path d="M5560 1520 c0 -20 -5 -30 -15 -30 -9 0 -15 -9 -15 -25 0 -16 6 -25
15 -25 12 0 15 -14 15 -68 0 -87 16 -112 71 -112 35 0 39 3 39 25 0 18 -5 25
-20 25 -18 0 -20 7 -20 65 0 58 2 65 20 65 15 0 20 7 20 25 0 18 -5 25 -20 25
-16 0 -20 7 -20 30 0 28 -3 30 -35 30 -32 0 -35 -2 -35 -30z"/>
<path d="M7390 1520 c0 -23 -4 -30 -20 -30 -15 0 -20 -7 -20 -25 0 -18 5 -25
20 -25 18 0 20 -7 20 -78 0 -47 5 -83 12 -90 7 -7 31 -12 55 -12 39 0 43 2 43
24 0 18 -6 25 -22 28 -21 3 -23 9 -26 65 -3 58 -1 62 20 65 31 4 32 42 1 46
-18 3 -23 10 -23 33 0 26 -3 29 -30 29 -27 0 -30 -3 -30 -30z"/>
<path d="M3166 1469 c-14 -11 -26 -29 -26 -40 0 -27 51 -26 68 1 14 23 44 26
62 5 18 -22 6 -31 -60 -44 -63 -13 -80 -28 -80 -74 0 -31 33 -60 67 -59 16 1
55 1 88 2 l61 0 -4 98 c-3 82 -7 100 -24 115 -30 25 -117 23 -152 -4z m104
-148 c-7 -14 -21 -21 -40 -21 -25 0 -30 4 -30 24 0 19 7 26 38 33 41 10 51 -1
32 -36z"/>
<path d="M3387 1483 c-4 -3 -7 -55 -7 -115 l0 -108 35 0 35 0 0 69 c0 77 13
101 56 101 20 0 24 5 24 30 0 25 -4 30 -24 30 -13 0 -29 -7 -37 -16 -11 -14
-13 -14 -21 0 -9 16 -49 22 -61 9z"/>
<path d="M3835 1465 c-48 -47 -27 -85 61 -111 41 -12 54 -20 52 -32 -5 -26
-54 -27 -75 -3 -23 27 -63 28 -63 1 0 -26 35 -57 73 -64 80 -14 151 35 131 91
-7 22 -22 32 -69 48 -37 13 -60 26 -60 35 0 21 39 24 55 5 16 -19 70 -20 70
-1 0 29 -50 56 -102 56 -39 0 -54 -5 -73 -25z"/>
<path d="M4493 1475 c-47 -33 -52 -137 -10 -182 23 -26 94 -32 115 -11 9 9 12
6 12 -13 0 -14 -5 -30 -12 -37 -17 -17 -57 -15 -64 3 -4 9 -19 15 -41 15 -42
0 -42 -22 0 -54 34 -25 105 -26 143 -1 37 24 45 57 42 179 -3 107 -4 111 -26
114 -13 2 -29 -2 -37 -8 -9 -7 -15 -8 -20 0 -9 15 -78 12 -102 -5z m105 -47
c16 -16 16 -80 0 -96 -7 -7 -21 -12 -33 -12 -31 0 -45 19 -45 60 0 41 14 60
45 60 12 0 26 -5 33 -12z"/>
<path d="M4749 1476 c-25 -15 -43 -49 -31 -60 12 -13 49 -5 65 15 23 26 61 22
65 -8 3 -20 -2 -23 -48 -29 -66 -9 -93 -31 -92 -74 1 -43 23 -64 64 -62 18 0
60 1 93 2 l60 0 -5 100 c-3 59 -10 104 -17 111 -19 19 -123 22 -154 5z m101
-140 c0 -36 -64 -52 -77 -20 -8 21 21 44 54 44 18 0 23 -6 23 -24z"/>
<path d="M4967 1484 c-4 -4 -7 -56 -7 -116 l0 -108 35 0 36 0 -3 113 c-3 112
-3 112 -28 115 -14 2 -29 0 -33 -4z"/>
<path d="M5070 1375 l0 -115 30 0 30 0 0 73 c0 83 13 111 51 105 23 -3 24 -6
27 -90 l3 -88 34 0 35 0 0 89 c0 74 -3 92 -21 115 -22 28 -73 36 -109 16 -13
-7 -21 -7 -25 0 -3 5 -17 10 -31 10 l-24 0 0 -115z"/>
<path d="M5336 1469 c-28 -22 -36 -69 -13 -87 6 -5 38 -18 70 -27 44 -13 57
-21 55 -33 -5 -27 -64 -28 -78 -3 -11 21 -54 29 -64 13 -3 -4 1 -19 7 -33 33
-65 186 -55 199 14 9 47 -7 66 -72 84 -45 12 -60 21 -58 32 4 22 42 26 58 6
14 -17 70 -21 70 -5 0 6 -11 22 -25 35 -32 33 -110 35 -149 4z"/>
<path d="M6130 1397 c0 -66 4 -99 15 -114 21 -29 68 -38 105 -20 16 9 30 11
30 6 0 -5 14 -9 30 -9 l30 0 0 115 0 115 -30 0 -30 0 0 -64 c0 -88 -12 -116
-49 -116 -24 0 -29 5 -35 31 -3 17 -6 58 -6 90 0 59 0 59 -30 59 l-30 0 0 -93z"/>
<path d="M6380 1375 l0 -115 30 0 30 0 0 63 c0 84 8 106 37 113 35 9 43 -8 43
-98 l0 -78 30 0 30 0 1 63 c1 79 10 111 32 115 36 7 47 -16 47 -99 l0 -79 36
0 37 0 -5 97 c-5 85 -8 99 -28 115 -26 21 -79 24 -105 4 -17 -12 -22 -12 -39
0 -27 19 -75 18 -98 -3 -17 -15 -18 -15 -18 0 0 12 -9 17 -30 17 l-30 0 0
-115z"/>
<path d="M6785 1465 c-14 -13 -25 -31 -25 -40 0 -22 52 -19 73 5 18 22 34 25
56 11 26 -17 4 -39 -45 -47 -52 -7 -94 -40 -94 -72 0 -33 33 -65 66 -64 16 1
58 2 92 2 l64 1 -4 95 c-3 86 -5 98 -27 115 -36 30 -124 27 -156 -6z m115
-123 c0 -25 -19 -42 -47 -42 -31 0 -42 29 -18 46 28 20 65 18 65 -4z"/>
<path d="M7007 1483 c-4 -3 -7 -55 -7 -115 l0 -108 35 0 35 0 0 73 c0 83 13
111 51 105 23 -3 24 -6 27 -90 l3 -88 34 0 35 0 0 89 c0 74 -3 92 -21 115 -22
28 -73 36 -109 16 -13 -7 -21 -7 -25 0 -7 11 -48 14 -58 3z"/>
<path d="M7257 1483 c-4 -3 -7 -55 -7 -115 l0 -108 35 0 35 0 0 115 0 115 -28
0 c-16 0 -32 -3 -35 -7z"/>
<path d="M7520 1486 c0 -3 18 -54 40 -113 22 -59 38 -113 36 -120 -3 -7 -17
-13 -31 -13 -21 0 -25 -5 -25 -30 0 -27 3 -30 34 -30 52 0 73 26 120 150 65
174 64 162 24 158 -32 -3 -34 -6 -57 -78 l-24 -75 -26 75 c-25 71 -28 75 -58
78 -18 2 -33 1 -33 -2z"/>
</g>
</svg>
